<?xml version="1.0" encoding="utf-8"?>
<!-- Generator: Adobe Illustrator 19.0.0, SVG Export Plug-In . SVG Version: 6.00 Build 0)  -->
<svg version="1.1" id="layer" xmlns="http://www.w3.org/2000/svg" xmlns:xlink="http://www.w3.org/1999/xlink" x="0px" y="0px"
	 viewBox="0 0 150 30" style="enable-background:new 0 0 150 30;" xml:space="preserve">
<style type="text/css">
	.st0{fill:#FFFFFF;}
	.st1{fill:none;}
	.st2{opacity:0.8;fill:#FFFFFF;}
	.st3{opacity:0.6;fill:#FFFFFF;}
</style>
<g id="XMLID_3_">
	<path id="XMLID_4_" class="st0" d="M27.4,15.1l2-4.2c0.3-0.6,0.8-1.4,1.7-1.4h5.7c0.9,0,1.5,0.7,1.7,1.4l0,0l1.9,4.3l-0.7,0.3
		l-0.6-1.4h-4.8v3.3h5v0.7h-5v3.4h6.2v0.7H27.3v-0.7h6.2v-3.4h-5v-0.7h5v-3.3h-4.8L28,15.4L27.4,15.1z M29,13.4h9.6l-0.9-2
		c-0.2-0.6-0.6-1-1-1H31c-0.5,0-0.8,0.6-1,1L29,13.4z"/>
	<path id="XMLID_7_" class="st0" d="M43.5,8.9l-0.1,2H47v0.7h-0.7v0.2c0,4-0.1,6.1-1.5,8.1l2.3,1.9l-0.5,0.6l-2.3-1.9
		c-0.6,0.6-1.3,1.2-2.2,1.8l-0.4-0.6c0.9-0.6,1.5-1.1,2-1.7l-0.2-0.1c-0.9-0.8-1-1.7-1-2.7c0-0.2,0-0.5,0-0.6c0-0.2,0-0.2,0-0.4
		l0.1-4.6h-0.9v-0.7h0.9l0.1-2L43.5,8.9z M44.1,19.3l0.2,0.2c1.3-1.8,1.3-3.9,1.3-7.6v-0.2h-2.1l-0.1,4.6c0,0.2,0,0.3,0,0.4
		c0,0.2,0,0.4,0,0.6C43.3,18,43.4,18.8,44.1,19.3z M47.6,10.2h0.9V8.9h0.7v1.3h4.5V8.9h0.8v1.3h0.9v0.7h-0.9v3.3
		c0,0.8-0.6,1.5-1.5,1.5h-1.1v1.2h3.5v0.7h-3.5v4.9h-0.7v-4.9h-3.5v-0.7h3.5v-1.2H50c-0.8,0-1.5-0.7-1.5-1.5v-3.3h-0.9
		C47.6,10.9,47.6,10.2,47.6,10.2z M49.5,18.3c-0.1,1.7-0.6,3-1.1,4.1l-0.6-0.3c0.6-1,0.9-2.2,1-3.8H49.5z M49.2,12.5h4.5v-1.7h-4.5
		C49.2,10.9,49.2,12.5,49.2,12.5z M53.7,14.3v-0.9h-4.5v0.9c0,0.4,0.3,0.7,0.7,0.7h3C53.4,15,53.7,14.7,53.7,14.3z M54.1,18.1l1,3.9
		l-0.7,0.2l-1.1-3.9L54.1,18.1z"/>
	<path id="XMLID_15_" class="st0" d="M56.6,12.4l2.8-2.8v12.9h-0.8v-11l-1.4,1.5L56.6,12.4z M65.5,9.1V11h4.3v0.7h-4.3v7.2h2.8
		l-1.4-6.3l0.7-0.2l2.3,9.8l-0.7,0.2l-0.7-2.7h-3.1v2.9h-0.8v-2.9h-2.9c-0.3,1-0.7,2-1.1,2.8L60,22c1.1-2.1,1.9-5.4,2.4-9.6l0.7,0.1
		c-0.2,2.4-0.6,4.6-1.2,6.4h2.8v-7.2h-4.3v-0.8h4.3V9.1H65.5z"/>
	<path id="XMLID_18_" class="st0" d="M71.2,16.3h6.9c0.1-0.3,0.1-0.7,0.1-1.1V8.8h0.7v6.4c0,0.4,0,0.8-0.1,1.1h5.9v0.8h-5.4l5.4,4.7
		l-0.5,0.6l-5.6-5c-0.7,2.3-2.8,3.9-7.2,4.9l-0.2-0.7c4.1-0.9,6-2.4,6.6-4.5h-6.8V16.3z M71.7,10.6h5.1v0.7h-5.1
		C71.7,11.3,71.7,10.6,71.7,10.6z M71.7,13.6h5.1v0.8h-5.1C71.7,14.3,71.7,13.6,71.7,13.6z"/>
	<path id="XMLID_22_" class="st0" d="M86,13.5L89,9.3v13.2h-0.7V11.7l-1.6,2.2L86,13.5z M98.7,22.1l-3.2-4.2v2.3
		c0,1.7-0.9,2-1.7,2.2l-0.2-0.7c0.6-0.2,1.2-0.3,1.2-1.5v-0.2c-1.1,0.9-2.8,1.7-5,2.3l-0.2-0.7c2.4-0.6,4.2-1.6,5.2-2.6v-1.1
		c-1.4,0.9-3.2,1.7-5,2.2l-0.2-0.7c1.9-0.5,3.7-1.3,5.1-2.4c-0.1-0.1-0.2-0.2-0.3-0.2h-2c-0.7,0.4-1.4,0.6-2.2,0.9l-0.2-0.7
		c1.3-0.4,2.6-0.9,3.4-2h-2.5c-0.6,0-0.9-0.4-0.9-0.9v-1c0-0.6,0.4-0.9,0.9-0.9H97l0.5-1.1h-6.6L91.6,9l0.7,0.2L92,10.2h6.6L97.9,12
		h0.3c0.6,0,0.9,0.4,0.9,0.9v1c0,0.6-0.4,0.9-0.9,0.9h-3.6c-0.2,0.5-0.6,0.9-0.9,1.2h1c0.4,0,0.8,0.2,0.9,0.6l1,1.3l2.3-1.7l0.5,0.6
		l-2.3,1.7l2.4,3.1L98.7,22.1z M91,14.1h3.2v-1.3H91c-0.1,0-0.2,0.1-0.2,0.2v1C90.9,14,90.9,14.1,91,14.1z M98.3,12.9
		c0-0.1-0.1-0.2-0.2-0.2H95v1.3h3.2c0.2,0,0.2-0.1,0.2-0.2V12.9z"/>
	<path id="XMLID_27_" class="st0" d="M107.8,8.9v2.6h5.8v0.7h-5.8v3.9h5.4v0.7h-5.4v4.6h6.1v0.7h-12.9v-0.7h6.1v-4.6h-5.4v-0.7h5.4
		v-3.9h-5.1l0.8-3l0.7,0.2l-0.6,2h4.2V8.9H107.8z"/>
	<path id="XMLID_29_" class="st0" d="M128,22.5c-0.8-0.9-1.4-2.1-2-3.4c-0.8,0.8-1.7,1.6-2.7,2.3l-0.4-0.6c1-0.7,2-1.5,2.8-2.4
		c-0.9-2-1.7-4.4-2.4-7h-5.1c-0.6,0-0.9,0.5-1,1l-0.1,1.3h3.5c0.8,0,1.5,0.7,1.5,1.4v5.4c0,0.8-0.6,1.5-1.5,1.5h-1.3v-0.8h1.3
		c0.4,0,0.7-0.3,0.7-0.7v-5.4c0-0.4-0.3-0.7-0.7-0.7h-3.6l-0.6,7.9l-0.7-0.1l0.7-10c0.1-0.9,0.8-1.7,1.7-1.7h4.9
		c-0.1-0.5-0.2-1-0.3-1.5l0.7-0.2c0.1,0.6,0.2,1.1,0.3,1.7h2.6c0.6,0,1-0.5,1-1V9.1h0.7v0.4c0,0.9-0.8,1.7-1.7,1.7h-2.4
		c0.6,2.4,1.3,4.6,2.1,6.4c0.7-0.9,1.3-1.8,1.8-2.8l0.6,0.3c-0.6,1.1-1.3,2.2-2.1,3.2c0.6,1.3,1.3,2.5,2.1,3.5L128,22.5z"/>
	<path id="XMLID_31_" class="st0" d="M137.6,13.6c-0.2,0.3-0.3,0.6-0.5,0.9h4.6c0.2,0,0.4-0.1,0.5-0.2c0.2-0.2,0.2-0.3,0.2-0.6v-0.3
		h0.7v0.3c0,0.4-0.2,0.8-0.4,1c-0.3,0.3-0.6,0.4-1,0.4h-2.8l4.6,2.3l-0.3,0.6l-5.9-2.9h-0.7c-1.2,1.4-2.9,2.2-6.2,2.6l-0.1-0.7
		c2.7-0.3,4.3-0.9,5.3-1.9h-5.3v-0.8h6c0.2-0.3,0.5-0.7,0.7-1.2L137.6,13.6z M130.5,10.6c0-0.8,0.6-1.5,1.5-1.5h3
		c0.8,0,1.4,0.6,1.4,1.5v0.9c0,0.8-0.6,1.5-1.4,1.5h-3c-0.8,0-1.5-0.6-1.5-1.5V10.6z M130.5,19.7c0-0.8,0.6-1.4,1.5-1.4h3
		c0.8,0,1.4,0.6,1.4,1.4V21c0,0.8-0.6,1.4-1.4,1.4h-3c-0.8,0-1.5-0.6-1.5-1.4V19.7z M131.2,11.4c0,0.4,0.3,0.7,0.7,0.7h3
		c0.4,0,0.7-0.3,0.7-0.7v-0.9c0-0.4-0.3-0.7-0.7-0.7h-3c-0.4,0-0.7,0.3-0.7,0.7V11.4z M131.2,21c0,0.4,0.3,0.7,0.7,0.7h3
		c0.4,0,0.7-0.3,0.7-0.7v-1.3c0-0.4-0.3-0.7-0.7-0.7h-3c-0.4,0-0.7,0.3-0.7,0.7V21z M137.3,10.6c0-0.8,0.7-1.5,1.4-1.5h3
		c0.8,0,1.5,0.6,1.5,1.5v0.9c0,0.8-0.6,1.5-1.5,1.5h-3c-0.8,0-1.4-0.6-1.4-1.5V10.6z M137.3,19.7c0-0.8,0.7-1.4,1.4-1.4h3
		c0.8,0,1.5,0.6,1.5,1.4V21c0,0.8-0.6,1.4-1.5,1.4h-3c-0.8,0-1.4-0.6-1.4-1.4V19.7z M138,11.4c0,0.4,0.3,0.7,0.7,0.7h3
		c0.4,0,0.7-0.3,0.7-0.7v-0.9c0-0.4-0.3-0.7-0.7-0.7h-3c-0.4,0-0.7,0.3-0.7,0.7V11.4z M138,21c0,0.4,0.3,0.7,0.7,0.7h3
		c0.4,0,0.7-0.3,0.7-0.7v-1.3c0-0.4-0.3-0.7-0.7-0.7h-3c-0.4,0-0.7,0.3-0.7,0.7V21z"/>
</g>
<g id="XMLID_1_">
</g>
<g id="XMLID_2_">
</g>
<g id="XMLID_41_">
</g>
<g id="XMLID_42_">
</g>
<g id="XMLID_43_">
</g>
<g id="XMLID_44_">
</g>
<circle id="XMLID_17_" class="st0" cx="19.3" cy="6.9" r="0.6"/>
<circle id="XMLID_16_" class="st0" cx="15.1" cy="3.6" r="0.5"/>
<circle id="XMLID_19_" class="st0" cx="16.4" cy="5.9" r="1.2"/>
<circle id="XMLID_20_" class="st0" cx="16.3" cy="4.2" r="0.3"/>
<circle id="XMLID_12_" class="st0" cx="18.8" cy="9.3" r="1.7"/>
<circle id="XMLID_21_" class="st0" cx="16.4" cy="9.7" r="1.2"/>
<circle id="XMLID_23_" class="st0" cx="12.2" cy="8.8" r="1.4"/>
<circle id="XMLID_24_" class="st0" cx="13.9" cy="7.5" r="1"/>
<circle id="XMLID_25_" class="st0" cx="10.2" cy="8.6" r="0.4"/>
<path id="XMLID_11_" class="st1" d="M7.6,17.3c-0.2,0-0.4,0-0.6,0c0.5,2.2,1.9,4.1,3.8,5.1c0.2-0.5,0.4-1,0.4-1.6
	C11.2,18.9,9.6,17.3,7.6,17.3z"/>
<path id="XMLID_10_" class="st0" d="M21.9,18c-1.4,0.4-2.5,1.7-2.5,3.2c0,0.2,0,0.3,0,0.5C20.6,20.8,21.5,19.5,21.9,18z"/>
<circle id="XMLID_9_" class="st0" cx="10.1" cy="9.8" r="0.6"/>
<circle id="XMLID_8_" class="st0" cx="16.6" cy="13.7" r="1.3"/>
<path id="XMLID_6_" class="st0" d="M11,13.3C10.9,12,9.9,11,8.6,10.9c-1,1.2-1.6,2.8-1.7,4.5c0.4,0.3,1,0.6,1.6,0.6
	c0.7,0,1.4-0.3,1.8-0.8C10.4,14.5,10.6,13.9,11,13.3z"/>
<path id="XMLID_5_" class="st0" d="M13,11.7c-0.1-0.9-0.9-1.6-1.8-1.6c-1,0-1.8,0.8-1.8,1.8c0,0.9,0.6,1.6,1.4,1.8
	C11.2,12.8,12,12.1,13,11.7z"/>
<path id="XMLID_36_" class="st0" d="M11.9,12.3c0.5-0.4,1.2-0.7,1.9-0.9c0.1-0.2,0.1-0.3,0.1-0.5c0-0.8-0.7-1.5-1.5-1.5
	c-0.8,0-1.5,0.7-1.5,1.5C10.9,11.6,11.3,12.1,11.9,12.3z"/>
<g id="XMLID_39_">
	<path id="XMLID_40_" class="st2" d="M14.6,11.4c1.1,0,2.2,0.5,3,1.2c0.1-0.2,0.1-0.4,0.1-0.6c0-1.2-1-2.1-2.1-2.1
		c-1,0-1.9,0.7-2.1,1.7C13.8,11.5,14.2,11.4,14.6,11.4z"/>
</g>
<g id="XMLID_13_">
	<path id="XMLID_14_" class="st3" d="M21.2,11.8c-0.2,0-0.4-0.1-0.6-0.1c-1.1,0-2,0.5-2.6,1.3c0.6,0.7,0.9,1.6,0.9,2.7
		c0,0.7-0.2,1.3-0.5,1.9c0.6,0.5,1.3,0.8,2.2,0.8c0.5,0,0.9-0.1,1.3-0.3c0.2-0.7,0.4-1.5,0.4-2.4C22.3,14.3,21.9,12.9,21.2,11.8z"/>
</g>
<path id="XMLID_30_" class="st0" d="M18.8,16.4c-0.3,1.9-1.9,3.4-3.9,3.6c0,1.4,0.8,2.6,1.9,3.2c2.3-0.7,4.1-2.4,4.9-4.6
	C21.3,17.3,20.1,16.5,18.8,16.4z"/>
<path id="XMLID_28_" class="st0" d="M14.6,20c-1.6,0-3-0.9-3.8-2.2c-1,0.7-1.8,1.8-2,3.1c1.4,1.6,3.5,2.6,5.8,2.6
	c1.2,0,2.3-0.3,3.4-0.8c0.1-0.4,0.1-0.7,0.1-1.1c0-1-0.3-1.8-0.8-2.6C16.5,19.6,15.6,20,14.6,20z"/>
<path id="XMLID_38_" class="st0" d="M7.6,17.3c-0.2,0-0.4,0-0.6,0c0.5,2.2,1.9,4.1,3.8,5.1c0.2-0.5,0.4-1,0.4-1.6
	C11.2,18.9,9.6,17.3,7.6,17.3z"/>
<path id="XMLID_45_" class="st0" d="M10.3,15.7c0-0.3,0-0.6,0.1-0.9c-0.6-0.4-1.3-0.6-2-0.6c-0.5,0-1,0.1-1.4,0.3
	c-0.1,0.4-0.1,0.9-0.1,1.3c0,2,0.8,3.9,2.1,5.3c1.2-0.2,2.3-1.1,2.7-2.2C10.8,18,10.3,16.9,10.3,15.7z"/>
</svg>
